<svg width="40" height="40" viewBox="0 0 40 40" fill="none" xmlns="http://www.w3.org/2000/svg">
<rect x="0.5" y="0.5" width="39" height="39" rx="19.5" stroke="#FAFAFA"/>
<g clip-path="url(#clip0_350_465)">
<g clip-path="url(#clip1_350_465)">
<path d="M20.8224 12C21.7224 12.0024 22.1791 12.0072 22.5735 12.0184L22.7287 12.024C22.9079 12.0304 23.0847 12.0384 23.2983 12.048C24.1494 12.088 24.7302 12.2224 25.2398 12.42C25.7678 12.6232 26.2125 12.8984 26.6573 13.3423C27.0642 13.7421 27.379 14.2259 27.5797 14.7599C27.7773 15.2694 27.9117 15.8502 27.9517 16.7022C27.9613 16.915 27.9692 17.0917 27.9756 17.2717L27.9804 17.4269C27.9924 17.8205 27.9972 18.2773 27.9988 19.1772L27.9996 19.774V20.822C28.0016 21.4054 27.9955 21.9889 27.9812 22.5723L27.9764 22.7275C27.97 22.9074 27.962 23.0842 27.9524 23.297C27.9125 24.149 27.7765 24.729 27.5797 25.2393C27.379 25.7733 27.0642 26.2571 26.6573 26.6569C26.2576 27.0638 25.7738 27.3786 25.2398 27.5792C24.7302 27.7768 24.1494 27.9112 23.2983 27.9512L22.7287 27.9752L22.5735 27.98C22.1791 27.9912 21.7224 27.9968 20.8224 27.9984L20.2256 27.9992H19.1785C18.5947 28.0013 18.011 27.9951 17.4274 27.9808L17.2722 27.976C17.0823 27.9688 16.8924 27.9605 16.7026 27.9512C15.8515 27.9112 15.2707 27.7768 14.7603 27.5792C14.2266 27.3785 13.7431 27.0637 13.3436 26.6569C12.9364 26.2572 12.6213 25.7734 12.4204 25.2393C12.2228 24.7298 12.0885 24.149 12.0485 23.297L12.0245 22.7275L12.0205 22.5723C12.0057 21.9889 11.999 21.4055 12.0005 20.822V19.1772C11.9982 18.5937 12.0041 18.0103 12.0181 17.4269L12.0237 17.2717C12.0301 17.0917 12.0381 16.915 12.0477 16.7022C12.0877 15.8502 12.222 15.2702 12.4196 14.7599C12.621 14.2256 12.9366 13.7419 13.3444 13.3423C13.7437 12.9356 14.2269 12.6208 14.7603 12.42C15.2707 12.2224 15.8507 12.088 16.7026 12.048C16.9154 12.0384 17.093 12.0304 17.2722 12.024L17.4274 12.0192C18.0107 12.005 18.5942 11.9989 19.1777 12.0008L20.8224 12ZM20.0001 15.9998C18.9392 15.9998 17.9219 16.4212 17.1718 17.1713C16.4217 17.9214 16.0003 18.9388 16.0003 19.9996C16.0003 21.0604 16.4217 22.0778 17.1718 22.8279C17.9219 23.578 18.9392 23.9994 20.0001 23.9994C21.0609 23.9994 22.0782 23.578 22.8283 22.8279C23.5784 22.0778 23.9998 21.0604 23.9998 19.9996C23.9998 18.9388 23.5784 17.9214 22.8283 17.1713C22.0782 16.4212 21.0609 15.9998 20.0001 15.9998ZM20.0001 17.5997C20.3152 17.5997 20.6273 17.6617 20.9185 17.7822C21.2097 17.9028 21.4743 18.0795 21.6971 18.3023C21.92 18.5252 22.0968 18.7897 22.2175 19.0808C22.3382 19.372 22.4003 19.684 22.4003 19.9992C22.4004 20.3144 22.3384 20.6264 22.2178 20.9176C22.0972 21.2088 21.9205 21.4734 21.6977 21.6963C21.4749 21.9192 21.2104 22.096 20.9192 22.2166C20.6281 22.3373 20.316 22.3994 20.0009 22.3995C19.3644 22.3995 18.7539 22.1466 18.3039 21.6966C17.8538 21.2465 17.601 20.6361 17.601 19.9996C17.601 19.3631 17.8538 18.7527 18.3039 18.3026C18.7539 17.8526 19.3644 17.5997 20.0009 17.5997M24.2006 14.7999C23.9354 14.7999 23.6811 14.9052 23.4936 15.0927C23.306 15.2803 23.2007 15.5346 23.2007 15.7998C23.2007 16.065 23.306 16.3194 23.4936 16.5069C23.6811 16.6944 23.9354 16.7998 24.2006 16.7998C24.4658 16.7998 24.7202 16.6944 24.9077 16.5069C25.0952 16.3194 25.2006 16.065 25.2006 15.7998C25.2006 15.5346 25.0952 15.2803 24.9077 15.0927C24.7202 14.9052 24.4658 14.7999 24.2006 14.7999Z" fill="#FAFAFA"/>
</g>
</g>
<defs>
<clipPath id="clip0_350_465">
<rect width="16" height="16" fill="white" transform="translate(12 12)"/>
</clipPath>
<clipPath id="clip1_350_465">
<rect width="16" height="16" fill="white" transform="translate(12 12)"/>
</clipPath>
</defs>
</svg>
