<svg width="100" height="125" viewBox="0 0 100 125" fill="none" xmlns="http://www.w3.org/2000/svg">
<path fill-rule="evenodd" clip-rule="evenodd" d="M14.5845 14.7774C34.1278 -4.92576 65.8152 -4.92588 85.3557 14.7775C104.881 34.4686 104.881 66.3824 85.3557 86.0706L51.1648 120.547C50.8778 120.836 50.4866 120.999 50.078 121C49.6693 121.002 49.2772 120.84 48.9885 120.553L25.8511 97.492L25.8391 97.4803L19.1195 90.6323C19.0921 90.6043 19.0658 90.5753 19.0406 90.5454L15.2009 85.978L15.1829 85.9562C2.99679 70.9017 -0.979889 57.0286 0.197336 45.3347C1.35994 33.7863 6.44019 22.9922 14.5845 14.7774ZM16.7667 16.9162C9.11742 24.6318 4.34017 34.7765 3.24673 45.6381C2.16816 56.352 5.75841 69.4497 17.5618 84.0356L21.3544 88.5471L28.0211 95.3411L28.033 95.3531L50.0672 117.314L83.1732 83.932C101.523 65.4299 101.523 35.4212 83.1732 16.9161C64.8331 -1.5768 35.1099 -1.57679 16.7667 16.9162ZM50.0869 35.5447C42.0324 35.5447 35.4657 42.1347 35.4657 50.3098C35.4657 58.4849 42.0324 65.0748 50.0869 65.0748C58.1415 65.0748 64.7082 58.4849 64.7082 50.3098C64.7082 42.1347 58.1415 35.5447 50.0869 35.5447ZM32.4011 50.3098C32.4011 40.4935 40.2988 32.4984 50.0869 32.4984C59.8751 32.4984 67.7728 40.4935 67.7728 50.3098C67.7728 60.1262 59.8751 68.1211 50.0869 68.1211C40.2988 68.1211 32.4011 60.1262 32.4011 50.3098Z" fill="#0474DC"/>
</svg>
