<svg width="40" height="40" viewBox="0 0 40 40" fill="none" xmlns="http://www.w3.org/2000/svg">
<path d="M0.5 20C0.5 9.23045 9.23045 0.5 20 0.5C30.7696 0.5 39.5 9.23045 39.5 20C39.5 30.7696 30.7696 39.5 20 39.5C9.23045 39.5 0.5 30.7696 0.5 20Z" stroke="#FAFAFA"/>
<g clip-path="url(#clip0_350_463)">
<path d="M13.8984 18.7713C18.0013 16.9664 23.3107 14.7657 24.0436 14.4612C25.9661 13.664 26.556 13.8168 26.2618 15.5822C26.0506 16.8511 25.4411 21.0522 24.9554 23.6671C24.6671 25.2177 24.0204 25.4015 23.0035 24.7306C22.5145 24.4078 20.0462 22.7755 19.5105 22.3923C19.0215 22.043 18.347 21.6228 19.1929 20.7953C19.4938 20.5005 21.4669 18.6166 23.0042 17.1501C23.2056 16.9575 22.9526 16.6412 22.7201 16.7956C20.6482 18.1696 17.7754 20.0768 17.4098 20.3252C16.8574 20.7003 16.3269 20.8723 15.3747 20.5988C14.6552 20.3921 13.9523 20.1457 13.6787 20.0516C12.6253 19.6899 12.8753 19.2215 13.8984 18.7713Z" fill="#FAFAFA"/>
</g>
<defs>
<clipPath id="clip0_350_463">
<rect width="16" height="16" fill="white" transform="translate(12 12)"/>
</clipPath>
</defs>
</svg>
