<svg width="200" height="68" viewBox="0 0 200 68" fill="none" xmlns="http://www.w3.org/2000/svg">
<path d="M0 65.6736L0.438977 64.0702C1.23215 65.1395 2.15082 65.9619 3.19444 66.538C4.23861 67.1146 5.42892 67.4024 6.76538 67.4024C7.64221 67.4024 8.44654 67.2507 9.17668 66.9467C9.90794 66.6427 10.4875 66.192 10.9153 65.5952C11.3431 64.9979 11.5573 64.2695 11.5573 63.4101C11.5573 62.2787 11.2182 61.3297 10.5399 60.565C9.86108 59.8002 9.0311 59.1352 8.0494 58.5691L5.35585 57.0285C4.50021 56.5252 3.7009 55.981 2.96017 55.3937C2.21887 54.807 1.62873 54.115 1.19031 53.3189C0.751894 52.5223 0.532685 51.5688 0.532685 50.4581C0.532685 49.6827 0.77309 48.8917 1.25279 48.0849C1.73304 47.2776 2.46374 46.6019 3.44544 46.0572C4.42658 45.5119 5.65873 45.2398 7.14077 45.2398C8.41475 45.2398 9.53199 45.3915 10.4925 45.6955C11.453 45.9989 12.351 46.5285 13.186 47.2832L12.5596 48.792C11.9126 47.7233 11.1869 46.9428 10.3832 46.4502C9.5794 45.9575 8.63451 45.7112 7.54851 45.7112C6.23325 45.7112 5.17346 46.0359 4.36913 46.6859C3.56536 47.3353 3.1632 48.2473 3.1632 49.4207C3.1632 50.2381 3.32552 50.9351 3.64903 51.5112C3.97255 52.0878 4.43216 52.5956 5.02732 53.0362C5.62192 53.4762 6.30632 53.937 7.07885 54.419L9.27095 55.7397C10.1483 56.2631 10.9465 56.8084 11.6672 57.3744C12.3873 57.9399 12.9668 58.5848 13.4058 59.3076C13.8437 60.0309 14.0629 60.8953 14.0629 61.9013C14.0629 63.1795 13.7343 64.2645 13.0762 65.1546C12.4185 66.0453 11.5361 66.7216 10.43 67.1824C9.32338 67.6437 8.09123 67.8738 6.73414 67.8738C5.41833 67.8738 4.18618 67.6907 3.03826 67.324C1.88978 66.9573 0.877396 66.4075 0 65.6736Z" fill="#FEFEFE"/>
<path d="M17.6637 55.6764L17.4445 55.4256C18.0079 54.7544 18.7698 54.199 19.7303 53.759C20.6914 53.3189 21.798 53.0989 23.0508 53.0989C24.6796 53.0989 25.8693 53.502 26.6212 54.3093C27.3731 55.116 27.7491 56.3264 27.7491 57.9399V67.5597H25.4309C25.3684 67.0777 25.3266 66.6113 25.306 66.1607C25.2848 65.7106 25.2641 65.2543 25.2429 64.7935C25.0968 65.2756 24.8569 65.7469 24.5228 66.2083C24.1887 66.669 23.7291 67.0463 23.1445 67.3397C22.56 67.6331 21.798 67.7797 20.8582 67.7797C19.5217 67.7797 18.4463 67.4287 17.6325 66.7267C16.8181 66.0246 16.4104 65.0656 16.4104 63.8502C16.4104 62.4041 16.9169 61.3773 17.9298 60.7694C18.9422 60.1619 20.2111 59.8579 21.735 59.8579C22.5494 59.8579 23.2438 59.9313 23.8183 60.0779C24.3923 60.2246 24.8675 60.3926 25.2429 60.5807V58.6632C25.2429 57.1332 24.9981 55.9384 24.5072 55.0791C24.0164 54.2203 23.0821 53.7903 21.7038 53.7903C20.8481 53.7903 20.0645 53.9739 19.3549 54.3406C18.6449 54.7073 18.081 55.153 17.6637 55.6764ZM22.0173 67.0883C22.6018 67.0883 23.1183 66.9209 23.5673 66.585C24.0164 66.2502 24.3873 65.836 24.6796 65.3433C24.9718 64.8512 25.1598 64.3742 25.2429 63.9135V61.0213C24.9088 60.8113 24.5016 60.6434 24.0219 60.518C23.5417 60.3926 22.9984 60.3293 22.3932 60.3293C21.8918 60.3293 21.3853 60.429 20.8738 60.6277C20.3623 60.827 19.9345 61.168 19.5898 61.65C19.2451 62.132 19.0733 62.8234 19.0733 63.7248C19.0733 64.7303 19.3081 65.5426 19.7777 66.1607C20.2474 66.7793 20.9943 67.0883 22.0173 67.0883Z" fill="#FEFEFE"/>
<path d="M41.9362 53.413H43.5649C43.5649 53.413 43.3825 53.7646 43.0166 54.466C42.6512 55.1686 42.1872 56.1327 41.6232 57.3588C41.0593 58.5848 40.4642 59.9839 39.8378 61.5554L37.3322 67.9998H36.7683L30.2539 53.413H33.0724L38.0841 65.0135L39.4306 61.4613C39.8484 60.3926 40.2293 59.3289 40.574 58.2702C40.9182 57.2121 41.2161 56.248 41.4665 55.378C41.7169 54.5086 41.8737 53.8536 41.9362 53.413Z" fill="#FEFEFE"/>
<path d="M46.0689 55.6764L45.8497 55.4256C46.4137 54.7544 47.1762 54.199 48.1367 53.759C49.0972 53.3189 50.2038 53.0989 51.4566 53.0989C53.0853 53.0989 54.2751 53.502 55.027 54.3093C55.7789 55.116 56.1548 56.3264 56.1548 57.9399V67.5597H53.8372C53.7742 67.0777 53.7324 66.6113 53.7117 66.1607C53.6905 65.7106 53.6699 65.2543 53.6487 64.7935C53.5026 65.2756 53.2627 65.7469 52.9286 66.2083C52.5945 66.669 52.1349 67.0463 51.5503 67.3397C50.9657 67.6331 50.2038 67.7797 49.2639 67.7797C47.9275 67.7797 46.8521 67.4287 46.0383 66.7267C45.2233 66.0246 44.8162 65.0656 44.8162 63.8502C44.8162 62.4041 45.3226 61.3773 46.3356 60.7694C47.348 60.1619 48.6169 59.8579 50.1408 59.8579C50.9551 59.8579 51.6496 59.9313 52.2236 60.0779C52.7981 60.2246 53.2733 60.3926 53.6487 60.5807V58.6632C53.6487 57.1332 53.4033 55.9384 52.913 55.0791C52.4221 54.2203 51.4878 53.7903 50.1095 53.7903C49.2539 53.7903 48.4708 53.9739 47.7607 54.3406C47.0507 54.7073 46.4867 55.153 46.0689 55.6764ZM50.423 67.0883C51.0076 67.0883 51.5246 66.9209 51.9731 66.585C52.4221 66.2502 52.793 65.836 53.0853 65.3433C53.3776 64.8512 53.5656 64.3742 53.6487 63.9135V61.0213C53.3146 60.8113 52.9074 60.6434 52.4277 60.518C51.9474 60.3926 51.4042 60.3293 50.799 60.3293C50.2975 60.3293 49.791 60.429 49.2796 60.6277C48.7681 60.827 48.3402 61.168 47.9955 61.65C47.6508 62.132 47.479 62.8234 47.479 63.7248C47.479 64.7303 47.7139 65.5426 48.1835 66.1607C48.6532 66.7793 49.4 67.0883 50.423 67.0883Z" fill="#FEFEFE"/>
<path d="M70.5603 67.5597H67.8979V45.5544C68.2114 45.5544 68.6398 45.5488 69.1825 45.5382C69.7253 45.5281 70.2992 45.5175 70.905 45.5068C71.5107 45.4967 72.0534 45.4911 72.5337 45.4911C73.014 45.4911 73.3269 45.4911 73.473 45.4911C75.4777 45.4911 77.0439 45.7901 78.1712 46.3875C79.2991 46.9843 80.0978 47.7652 80.5675 48.7293C81.0371 49.6934 81.272 50.7095 81.272 51.7788C81.272 52.9102 81.0321 53.8636 80.5519 54.639C80.0716 55.4144 79.4865 56.0224 78.7976 56.4624C78.1088 56.9025 77.4299 57.2065 76.7617 57.3744L84.1222 67.5597H80.9278L73.9745 57.7512H70.5603V67.5597ZM70.5603 46.0885V57.2804H72.4712C74.2667 57.2804 75.7131 56.8297 76.8091 55.9284C77.9052 55.027 78.4535 53.675 78.4535 51.8734C78.4535 50.0707 77.9208 48.6347 76.856 47.5659C75.7912 46.4972 74.3292 45.9631 72.4712 45.9631C72.0116 45.9631 71.6825 45.9732 71.4845 45.9945C71.2859 46.0152 70.978 46.0465 70.5603 46.0885Z" fill="#FEFEFE"/>
<path d="M97.8084 65.139L98.0907 65.5169C97.2969 66.5436 96.3989 67.193 95.3971 67.4657C94.3948 67.7378 93.4237 67.8738 92.4838 67.8738C90.2917 67.8738 88.5587 67.2244 87.2847 65.925C86.0113 64.6256 85.3743 62.8027 85.3743 60.4553C85.3743 59.1553 85.6509 57.9505 86.2043 56.8398C86.7576 55.7291 87.577 54.8277 88.663 54.1363C89.749 53.4449 91.0642 53.0989 92.6093 53.0989C94.0294 53.0989 95.2192 53.3766 96.1797 53.932C97.1402 54.4873 97.8609 55.2414 98.3411 56.1954C98.8214 57.1488 99.0612 58.2125 99.0612 59.3865C99.0612 59.6379 99.0562 59.8372 99.0461 59.9839C99.0355 60.1306 99.0194 60.2773 98.9987 60.4234H88.0366C88.0366 61.6601 88.2452 62.7971 88.663 63.8345C89.0808 64.8719 89.6915 65.6999 90.4953 66.318C91.2996 66.9361 92.2646 67.2457 93.3924 67.2457C94.2486 67.2457 95.068 67.0727 95.8511 66.7267C96.6343 66.3807 97.2869 65.8516 97.8084 65.139ZM88.0366 59.9839H96.3677C96.3889 59.7952 96.4045 59.601 96.4151 59.4017C96.4257 59.2029 96.4307 58.9672 96.4307 58.6946C96.4307 56.8924 96.086 55.5874 95.3971 54.7807C94.7077 53.9739 93.7784 53.5703 92.6093 53.5703C91.2728 53.5703 90.1718 54.0837 89.305 55.111C88.4387 56.1378 88.0154 57.7624 88.0366 59.9839Z" fill="#FEFEFE"/>
<path d="M110.335 55.8657C109.834 55.1323 109.265 54.5657 108.628 54.1677C107.991 53.7696 107.245 53.5703 106.389 53.5703C105.47 53.5703 104.739 53.7646 104.196 54.152C103.653 54.54 103.382 55.0796 103.382 55.7711C103.382 56.5672 103.637 57.1858 104.149 57.6258C104.661 58.0659 105.387 58.4953 106.326 58.9146L107.861 59.6066C108.78 60.0046 109.552 60.518 110.178 61.1467C110.805 61.7754 111.118 62.614 111.118 63.6615C111.118 64.6468 110.878 65.4536 110.398 66.0823C109.917 66.711 109.28 67.1667 108.487 67.45C107.694 67.7327 106.817 67.8738 105.856 67.8738C104.979 67.8738 104.128 67.7327 103.304 67.45C102.479 67.1667 101.742 66.7323 101.095 66.145L101.722 64.9822C102.703 66.6169 104.092 67.4343 105.887 67.4343C106.869 67.4343 107.662 67.2143 108.268 66.7737C108.874 66.3337 109.176 65.6736 109.176 64.7935C109.176 64.0389 108.921 63.4471 108.409 63.0171C107.897 62.5877 107.286 62.2154 106.576 61.9014L104.823 61.1153C103.883 60.696 103.09 60.1776 102.443 59.559C101.795 58.9409 101.471 58.0552 101.471 56.9025C101.471 55.8343 101.857 54.9324 102.63 54.199C103.403 53.4656 104.551 53.0989 106.075 53.0989C107.182 53.0989 108.096 53.2243 108.816 53.4762C109.536 53.7276 110.2 54.063 110.805 54.4823L110.335 55.8657Z" fill="#FEFEFE"/>
<path d="M114.719 67.5597V53.413H117.225V67.5597H114.719ZM114.406 48.1006C114.406 47.6393 114.568 47.2726 114.891 46.9999C115.215 46.7278 115.596 46.5918 116.035 46.5918C116.431 46.5918 116.786 46.7278 117.1 46.9999C117.413 47.2726 117.57 47.6393 117.57 48.1006C117.57 48.624 117.413 49.0283 117.1 49.311C116.786 49.5937 116.431 49.7353 116.035 49.7353C115.596 49.7353 115.215 49.5937 114.891 49.311C114.568 49.0283 114.406 48.624 114.406 48.1006Z" fill="#FEFEFE"/>
<path d="M135.109 67.5598H132.791C132.75 67.2244 132.713 66.8627 132.682 66.4753C132.65 66.0874 132.629 65.752 132.619 65.4693C132.609 65.1866 132.604 65.0449 132.604 65.0449C132.248 66.0297 131.616 66.7373 130.708 67.1667C129.8 67.5967 128.772 67.8111 127.623 67.8111C126.287 67.8111 125.107 67.4915 124.084 66.8527C123.061 66.2133 122.267 65.3489 121.703 64.2589C121.14 63.1694 120.858 61.9535 120.858 60.6126C120.858 59.25 121.156 58.0032 121.751 56.8712C122.345 55.7397 123.207 54.8277 124.334 54.1363C125.462 53.4449 126.819 53.0989 128.406 53.0989C129.325 53.0989 130.139 53.2092 130.849 53.4292C131.559 53.6493 132.143 53.8743 132.604 54.105V45.5545H135.109V67.5598ZM132.604 64.3535V54.9537C132.165 54.5769 131.596 54.2567 130.896 53.9947C130.197 53.7332 129.44 53.6017 128.625 53.6017C127.498 53.6017 126.558 53.9006 125.806 54.498C125.054 55.0953 124.486 55.9071 124.1 56.9344C123.713 57.9612 123.52 59.124 123.52 60.4234C123.52 61.7648 123.745 62.9388 124.194 63.9448C124.642 64.9503 125.259 65.7313 126.042 66.2867C126.824 66.842 127.707 67.1197 128.688 67.1197C129.482 67.1197 130.233 66.9154 130.943 66.5067C131.653 66.098 132.206 65.3803 132.604 64.3535Z" fill="#FEFEFE"/>
<path d="M150.83 65.139L151.112 65.5169C150.319 66.5436 149.421 67.193 148.419 67.4657C147.417 67.7378 146.445 67.8738 145.506 67.8738C143.313 67.8738 141.58 67.2244 140.306 65.925C139.033 64.6256 138.396 62.8027 138.396 60.4553C138.396 59.1553 138.673 57.9505 139.226 56.8398C139.779 55.7291 140.599 54.8277 141.685 54.1363C142.77 53.4449 144.086 53.0989 145.631 53.0989C147.051 53.0989 148.241 53.3766 149.201 53.932C150.162 54.4873 150.883 55.2414 151.363 56.1954C151.843 57.1488 152.083 58.2125 152.083 59.3865C152.083 59.6379 152.078 59.8372 152.068 59.9839C152.057 60.1306 152.041 60.2773 152.02 60.4234H141.058C141.058 61.6601 141.267 62.7971 141.685 63.8345C142.102 64.8719 142.713 65.6999 143.517 66.318C144.321 66.9361 145.287 67.2457 146.414 67.2457C147.27 67.2457 148.09 67.0727 148.873 66.7267C149.656 66.3807 150.309 65.8516 150.83 65.139ZM141.058 59.9839H149.389C149.411 59.7952 149.426 59.601 149.437 59.4017C149.447 59.2029 149.452 58.9672 149.452 58.6946C149.452 56.8924 149.108 55.5874 148.419 54.7807C147.729 53.9739 146.8 53.5703 145.631 53.5703C144.295 53.5703 143.194 54.0837 142.327 55.111C141.46 56.1378 141.037 57.7624 141.058 59.9839Z" fill="#FEFEFE"/>
<path d="M155.37 67.5597V53.413H157.688C157.73 53.7069 157.766 54.0266 157.798 54.372C157.829 54.718 157.85 55.0169 157.86 55.2677C157.871 55.5197 157.876 55.6456 157.876 55.6456C158.586 54.8702 159.427 54.2623 160.397 53.8217C161.369 53.3816 162.397 53.1616 163.482 53.1616C166.552 53.1616 168.087 54.9643 168.087 58.5692V67.5597H165.581V58.8519C165.581 57.2171 165.263 56.0594 164.626 55.378C163.989 54.6967 163.044 54.3563 161.791 54.3563C161.082 54.3563 160.382 54.5086 159.693 54.812C159.004 55.116 158.398 55.5717 157.876 56.1797V67.5597H155.37Z" fill="#FEFEFE"/>
<path d="M183.903 65.139L184.184 65.5169C182.973 67.0883 181.23 67.8738 178.954 67.8738C176.615 67.8738 174.741 67.2457 173.332 65.9877C171.923 64.7303 171.218 62.8968 171.218 60.4866C171.218 59.0825 171.53 57.8246 172.157 56.7144C172.784 55.6031 173.656 54.723 174.772 54.0736C175.89 53.4236 177.179 53.0989 178.641 53.0989C179.747 53.0989 180.75 53.2405 181.648 53.5233C182.545 53.8066 183.266 54.157 183.808 54.5769L183.339 56.0224C182.9 55.3097 182.316 54.723 181.585 54.2617C180.854 53.801 180.019 53.5703 179.079 53.5703C178.16 53.5703 177.304 53.7903 176.511 54.2304C175.717 54.671 175.081 55.373 174.6 56.3365C174.12 57.3005 173.88 58.5692 173.88 60.1406C173.88 62.4674 174.464 64.2326 175.634 65.4379C176.803 66.6427 178.275 67.2457 180.05 67.2457C180.843 67.2457 181.6 67.0363 182.321 66.6169C183.041 66.1976 183.569 65.705 183.903 65.139Z" fill="#FEFEFE"/>
<path d="M198.654 65.139L198.935 65.5169C198.142 66.5436 197.244 67.193 196.242 67.4657C195.239 67.7378 194.269 67.8738 193.329 67.8738C191.136 67.8738 189.403 67.2244 188.129 65.925C186.856 64.6256 186.219 62.8027 186.219 60.4553C186.219 59.1553 186.496 57.9505 187.049 56.8398C187.602 55.7291 188.422 54.8277 189.508 54.1363C190.594 53.4449 191.909 53.0989 193.455 53.0989C194.874 53.0989 196.064 53.3766 197.025 53.932C197.985 54.4873 198.706 55.2414 199.186 56.1954C199.666 57.1488 199.906 58.2125 199.906 59.3865C199.906 59.6379 199.901 59.8372 199.891 59.9839C199.88 60.1306 199.865 60.2773 199.844 60.4234H188.882C188.882 61.6601 189.09 62.7971 189.508 63.8345C189.925 64.8719 190.536 65.6999 191.34 66.318C192.144 66.9361 193.11 67.2457 194.237 67.2457C195.093 67.2457 195.913 67.0727 196.696 66.7267C197.479 66.3807 198.132 65.8516 198.654 65.139ZM188.882 59.9839H197.213C197.234 59.7952 197.249 59.601 197.26 59.4017C197.27 59.2029 197.275 58.9672 197.275 58.6946C197.275 56.8924 196.931 55.5874 196.242 54.7807C195.552 53.9739 194.623 53.5703 193.455 53.5703C192.118 53.5703 191.017 54.0837 190.15 55.111C189.283 56.1378 188.861 57.7624 188.882 59.9839Z" fill="#FEFEFE"/>
<path fill-rule="evenodd" clip-rule="evenodd" d="M79.7458 30.6536C91.3991 26.3097 104.58 25.9262 115.705 32.3118C115.97 32.4636 116.082 32.8297 115.962 33.1398C115.895 33.31 115.768 33.4394 115.613 33.4925C103.975 37.491 90.8318 37.8985 79.6817 31.836C79.5355 31.757 79.4273 31.6075 79.3844 31.429C79.3052 31.1014 79.4636 30.7588 79.7458 30.6536Z" fill="url(#paint0_linear_148_1004)"/>
<path fill-rule="evenodd" clip-rule="evenodd" d="M129.451 29.0809L124.967 28.6017L124.961 28.6006C123.005 28.2608 121.067 27.7507 119.171 27.07C119.183 27.084 119.195 27.098 119.206 27.112C110.106 24.3245 100.647 20.924 91.2518 21.9048C80.9093 22.7121 71.3188 28.9046 60.5429 27.6125C54.0235 26.8953 47.8455 23.2843 43.2996 17.9434C63.0987 24.4499 70.4838 12.3527 86.992 11.3618H91.321C103.155 11.3618 118.15 27.8616 129.451 29.0809Z" fill="url(#paint1_linear_148_1004)"/>
<path fill-rule="evenodd" clip-rule="evenodd" d="M156.608 17.4177C149.485 25.5561 139.452 29.4952 129.459 29.0826L129.451 29.0809C118.15 27.8616 103.155 11.3618 91.3211 11.3618C85.3623 8.21491 78.8256 7.48207 72.2961 7.23238C76.5242 2.58454 82.3831 0.13689 88.2438 0.00308719C101.943 -0.205735 113.317 10.2611 125.72 14.4482C134.656 17.6853 144.297 17.6259 153.703 17.3824C154.653 17.3751 155.608 17.36 156.608 17.4177Z" fill="url(#paint2_linear_148_1004)"/>
<defs>
<linearGradient id="paint0_linear_148_1004" x1="79.4229" y1="31.9754" x2="115.938" y2="31.9754" gradientUnits="userSpaceOnUse">
<stop stop-color="#0E2946"/>
<stop offset="1" stop-color="#316296"/>
</linearGradient>
<linearGradient id="paint1_linear_148_1004" x1="77.672" y1="42.2076" x2="93.7405" y2="7.94294" gradientUnits="userSpaceOnUse">
<stop stop-color="#173557"/>
<stop offset="0.670588" stop-color="#79B2EB"/>
<stop offset="0.945098" stop-color="#456F9A"/>
<stop offset="0.988235" stop-color="#112C49"/>
<stop offset="1" stop-color="#345C97"/>
</linearGradient>
<linearGradient id="paint2_linear_148_1004" x1="119.688" y1="-2.7256" x2="109.679" y2="25.7475" gradientUnits="userSpaceOnUse">
<stop stop-color="#8FB4DB"/>
<stop offset="0.415686" stop-color="#547EAC"/>
<stop offset="0.8" stop-color="#19487D"/>
<stop offset="0.972549" stop-color="#143962"/>
<stop offset="1" stop-color="#0F2A47"/>
</linearGradient>
</defs>
</svg>
